<svg id="Layer_1" data-name="Layer 1" xmlns="http://www.w3.org/2000/svg" viewBox="0 0 259.19 36.94" fill="#f1f1f1"><path d="M0,36.65V10.47H4.54v7.06L3.8,15.66a9.08,9.08,0,0,1,4-4A12.94,12.94,0,0,1,14,10.22a12.27,12.27,0,0,1,5.65,1.24,8.83,8.83,0,0,1,3.83,3.75,13.15,13.15,0,0,1,1.38,6.37V36.65H20.1V22.13q0-3.81-1.85-5.73A6.86,6.86,0,0,0,13,14.47a9.3,9.3,0,0,0-4.4,1,6.82,6.82,0,0,0-2.89,2.91,10.29,10.29,0,0,0-1,4.79V36.65Z" transform="translate(0 0)"/><path d="M42.18,36.94a13.38,13.38,0,0,1-5.9-1.23,8.85,8.85,0,0,1-4-3.78,13.09,13.09,0,0,1-1.41-6.4V10.47h4.74V25c0,2.57.62,4.49,1.85,5.78a6.91,6.91,0,0,0,5.21,1.92,8.68,8.68,0,0,0,4.3-1,6.77,6.77,0,0,0,2.81-3,10.32,10.32,0,0,0,1-4.72V10.47h4.74V36.65H51.07V29.58l.74,1.88a9.19,9.19,0,0,1-3.85,4A11.74,11.74,0,0,1,42.18,36.94Z" transform="translate(0 0)"/><path d="M69,36.65,57.54,10.47h4.94L72.65,34.18H70.28L80.65,10.47h4.64L73.84,36.65Z" transform="translate(0 0)"/><path d="M97.74,36.94a14,14,0,0,1-7-1.73,12.7,12.7,0,0,1-4.86-4.76,13.35,13.35,0,0,1-1.78-6.89,13.17,13.17,0,0,1,1.78-6.89A12.83,12.83,0,0,1,90.73,12a14,14,0,0,1,7-1.73,14.19,14.19,0,0,1,7,1.71,12.45,12.45,0,0,1,4.84,4.71,13.51,13.51,0,0,1,1.75,6.92,13.47,13.47,0,0,1-1.75,6.91,12.6,12.6,0,0,1-4.84,4.74A14,14,0,0,1,97.74,36.94Zm0-4.15a9.08,9.08,0,0,0,4.52-1.13,8,8,0,0,0,3.13-3.24,10,10,0,0,0,1.14-4.86,9.88,9.88,0,0,0-1.14-4.87,8,8,0,0,0-3.13-3.18,9,9,0,0,0-4.52-1.14,8.85,8.85,0,0,0-4.5,1.14,8.54,8.54,0,0,0-3.16,3.18,9.57,9.57,0,0,0-1.18,4.87,9.72,9.72,0,0,0,1.18,4.86,8.49,8.49,0,0,0,3.16,3.24A9,9,0,0,0,97.74,32.79Z" transform="translate(0 0)"/><path d="M115.42,36.65V0h4.74V17.43l-.49,6.08.29,6.07v7.07Zm13.88.29a12.2,12.2,0,0,1-6.05-1.5A10.68,10.68,0,0,1,119,31a15.82,15.82,0,0,1-1.56-7.41,15.39,15.39,0,0,1,1.61-7.41,10.74,10.74,0,0,1,4.3-4.45,12.18,12.18,0,0,1,6-1.48,13.54,13.54,0,0,1,6.81,1.68,12.47,12.47,0,0,1,4.7,4.67,13.72,13.72,0,0,1,1.72,7,13.88,13.88,0,0,1-1.72,7,12.38,12.38,0,0,1-4.7,4.69A13.54,13.54,0,0,1,129.3,36.94Zm-.4-4.15a9.05,9.05,0,0,0,4.52-1.13,8.15,8.15,0,0,0,3.16-3.24,9.82,9.82,0,0,0,1.16-4.86,9.67,9.67,0,0,0-1.16-4.87,8.19,8.19,0,0,0-3.16-3.18,9.43,9.43,0,0,0-9,0,8.32,8.32,0,0,0-3.16,3.18,9.77,9.77,0,0,0-1.16,4.87,9.92,9.92,0,0,0,1.16,4.86,8.28,8.28,0,0,0,3.16,3.24A9,9,0,0,0,128.9,32.79Z" transform="translate(0 0)"/><path d="M146.63,36.65V0h4.74V36.65Z" transform="translate(0 0)"/><path d="M169.15,36.94a14,14,0,0,1-7-1.73,12.84,12.84,0,0,1-4.86-4.76,13.35,13.35,0,0,1-1.78-6.89,13.17,13.17,0,0,1,1.78-6.89A13,13,0,0,1,162.14,12a14,14,0,0,1,7-1.73,14.19,14.19,0,0,1,7,1.71A12.45,12.45,0,0,1,181,16.64a13.51,13.51,0,0,1,1.75,6.92A13.47,13.47,0,0,1,181,30.47a12.6,12.6,0,0,1-4.84,4.74A14,14,0,0,1,169.15,36.94Zm0-4.15a9.05,9.05,0,0,0,4.52-1.13,8,8,0,0,0,3.14-3.24,10,10,0,0,0,1.13-4.86,9.88,9.88,0,0,0-1.13-4.87,8.07,8.07,0,0,0-3.14-3.18,9,9,0,0,0-4.52-1.14,8.82,8.82,0,0,0-4.49,1.14,8.46,8.46,0,0,0-3.16,3.18,9.58,9.58,0,0,0-1.19,4.87,9.72,9.72,0,0,0,1.19,4.86,8.42,8.42,0,0,0,3.16,3.24A8.91,8.91,0,0,0,169.15,32.79Z" transform="translate(0 0)"/><path d="M198,36.94a13.93,13.93,0,0,1-7-1.73,12.8,12.8,0,0,1-4.87-4.76,13.45,13.45,0,0,1-1.78-6.89,13.26,13.26,0,0,1,1.78-6.89A13,13,0,0,1,191,12a15.1,15.1,0,0,1,14,0,12.45,12.45,0,0,1,4.84,4.71,13.51,13.51,0,0,1,1.76,6.92,13.48,13.48,0,0,1-1.76,6.91A12.6,12.6,0,0,1,205,35.21,13.94,13.94,0,0,1,198,36.94Zm0-4.15a9.05,9.05,0,0,0,4.52-1.13,8,8,0,0,0,3.14-3.24,10,10,0,0,0,1.14-4.86,9.88,9.88,0,0,0-1.14-4.87,8.07,8.07,0,0,0-3.14-3.18A9,9,0,0,0,198,14.37a8.84,8.84,0,0,0-4.49,1.14,8.46,8.46,0,0,0-3.16,3.18a9.58,9.58,0,0,0-1.19,4.87a9.72,9.72,0,0,0,1.19,4.86,8.42,8.42,0,0,0,3.16,3.24A8.94,8.94,0,0,0,198,32.79Z" transform="translate(0 0)"/><path d="M215.73,36.65V10.47h4.54v7l-.74-1.77a8.85,8.85,0,0,1,3.8-4,12,12,0,0,1,6-1.44,11.24,11.24,0,0,1,6.47,1.85,8.8,8.8,0,0,1,3.55,5.61l-1.92-.79a9.82,9.82,0,0,1,4.15-4.84,12.87,12.87,0,0,1,6.91-1.83,12,12,0,0,1,5.58,1.24,8.77,8.77,0,0,1,3.78,3.75,13.39,13.39,0,0,1,1.36,6.37V36.65h-4.74V22.13c0-2.54-.6-4.45-1.78-5.73a6.44,6.44,0,0,0-5-1.93,8.41,8.41,0,0,0-4.15,1,6.66,6.66,0,0,0-2.74,2.91,10.7,10.7,0,0,0-1,4.79V36.65h-4.74V22.13q0-3.81-1.76-5.73a6.42,6.42,0,0,0-5-1.93,8.29,8.29,0,0,0-4.1,1,6.84,6.84,0,0,0-2.77,2.91,10.56,10.56,0,0,0-1,4.79V36.65Z" transform="translate(0 0)"/></svg>